<svg width="9" height="12" viewBox="0 0 9 12" fill="none" xmlns="http://www.w3.org/2000/svg">
<path d="M8.20455 3.11364L7.81818 4.43182H0.454545L0.840909 3.11364H8.20455ZM4.75 12L0.590909 6.90909L0.568182 5.95455H2.63636C3.17424 5.95455 3.63258 5.87879 4.01136 5.72727C4.39015 5.57197 4.67992 5.34091 4.88068 5.03409C5.08144 4.72348 5.18182 4.33333 5.18182 3.86364C5.18182 3.17045 4.97349 2.62689 4.55682 2.23295C4.14015 1.83523 3.5 1.63636 2.63636 1.63636H0.454545L0.840909 0.363636H2.63636C3.56061 0.363636 4.31818 0.517045 4.90909 0.823863C5.50379 1.12689 5.94318 1.54356 6.22727 2.07386C6.51515 2.60038 6.65909 3.19697 6.65909 3.86364C6.65909 4.46591 6.52652 5.02083 6.26136 5.52841C6 6.0322 5.57955 6.4375 5 6.74432C4.42424 7.05114 3.66288 7.20455 2.71591 7.20455H2.68182L6.52273 11.9091V12H4.75ZM8.20455 0.363636L7.81818 1.68182L2.02273 1.63636L2.40909 0.363636H8.20455Z" fill="#222222"/>
</svg>
