<svg width="20" height="21" viewBox="0 0 20 21" fill="none" xmlns="http://www.w3.org/2000/svg">
<path d="M10 0.501953C11.9778 0.501953 13.9112 1.08844 15.5557 2.18726C17.2002 3.28607 18.4819 4.84786 19.2388 6.67512C19.9957 8.50238 20.1937 10.513 19.8079 12.4529C19.422 14.3927 18.4696 16.1745 17.0711 17.573C15.6725 18.9715 13.8907 19.924 11.9509 20.3098C10.0111 20.6957 8.00043 20.4976 6.17317 19.7407C4.3459 18.9839 2.78412 17.7021 1.6853 16.0577C0.58649 14.4132 0 12.4798 0 10.502C0 7.84979 1.05357 5.30625 2.92893 3.43089C4.8043 1.55552 7.34784 0.501953 10 0.501953Z" fill="#2C65D8"/>
</svg>
