<svg width="18" height="17" viewBox="0 0 18 17" fill="none" xmlns="http://www.w3.org/2000/svg">
<path d="M3.42857 3.42857C3.42857 1.53429 4.96286 0 6.85714 0C8.75143 0 10.2857 1.53429 10.2857 3.42857C10.2857 5.32286 8.75143 6.85714 6.85714 6.85714C4.96286 6.85714 3.42857 5.32286 3.42857 3.42857ZM6.12 13.5L5.87143 12.8571L6.12 12.2143C6.72 10.7143 7.78286 9.54857 9.09429 8.76C8.39143 8.64 7.64571 8.57143 6.85714 8.57143C3.06857 8.57143 0 10.1057 0 12V13.7143H6.23143C6.19714 13.6371 6.15429 13.5686 6.12 13.5ZM12.8571 12C12.3771 12 12 12.3771 12 12.8571C12 13.3371 12.3771 13.7143 12.8571 13.7143C13.3371 13.7143 13.7143 13.3371 13.7143 12.8571C13.7143 12.3771 13.3371 12 12.8571 12ZM18 12.8571C17.1943 14.8629 15.1971 16.2857 12.8571 16.2857C10.5171 16.2857 8.52 14.8629 7.71429 12.8571C8.52 10.8514 10.5171 9.42857 12.8571 9.42857C15.1971 9.42857 17.1943 10.8514 18 12.8571ZM15 12.8571C15 11.6743 14.04 10.7143 12.8571 10.7143C11.6743 10.7143 10.7143 11.6743 10.7143 12.8571C10.7143 14.04 11.6743 15 12.8571 15C14.04 15 15 14.04 15 12.8571Z" fill="#2C65D8"/>
</svg>
