<svg width="24" height="16" viewBox="0 0 24 16" fill="none" xmlns="http://www.w3.org/2000/svg">
<path d="M12 0.686035C12.9283 0.686035 13.8185 1.05478 14.4749 1.71116C15.1313 2.36754 15.5 3.25778 15.5 4.18604C15.5 5.11429 15.1313 6.00453 14.4749 6.66091C13.8185 7.31729 12.9283 7.68604 12 7.68604C11.0717 7.68604 10.1815 7.31729 9.52513 6.66091C8.86875 6.00453 8.5 5.11429 8.5 4.18604C8.5 3.25778 8.86875 2.36754 9.52513 1.71116C10.1815 1.05478 11.0717 0.686035 12 0.686035ZM5 3.18604C5.56 3.18604 6.08 3.33604 6.53 3.60604C6.38 5.03604 6.8 6.45604 7.66 7.56604C7.16 8.52604 6.16 9.18604 5 9.18604C4.20435 9.18604 3.44129 8.86996 2.87868 8.30736C2.31607 7.74475 2 6.98168 2 6.18604C2 5.39039 2.31607 4.62732 2.87868 4.06471C3.44129 3.50211 4.20435 3.18604 5 3.18604ZM19 3.18604C19.7956 3.18604 20.5587 3.50211 21.1213 4.06471C21.6839 4.62732 22 5.39039 22 6.18604C22 6.98168 21.6839 7.74475 21.1213 8.30736C20.5587 8.86996 19.7956 9.18604 19 9.18604C17.84 9.18604 16.84 8.52604 16.34 7.56604C17.2 6.45604 17.62 5.03604 17.47 3.60604C17.92 3.33604 18.44 3.18604 19 3.18604ZM5.5 13.436C5.5 11.366 8.41 9.68604 12 9.68604C15.59 9.68604 18.5 11.366 18.5 13.436V15.186H5.5V13.436ZM0 15.186V13.686C0 12.296 1.89 11.126 4.45 10.786C3.86 11.466 3.5 12.406 3.5 13.436V15.186H0ZM24 15.186H20.5V13.436C20.5 12.406 20.14 11.466 19.55 10.786C22.11 11.126 24 12.296 24 13.686V15.186Z" fill="#2C65D8"/>
</svg>
