<svg width="16" height="22" viewBox="0 0 16 22" fill="none" xmlns="http://www.w3.org/2000/svg">
<path d="M15.3335 4.125H2.57739C2.40731 4.12251 2.23948 4.08452 2.08402 4.0133C1.92856 3.94209 1.7887 3.83913 1.67286 3.71065C1.55702 3.58216 1.46761 3.4308 1.41002 3.2657C1.35243 3.10059 1.32785 2.92517 1.33777 2.75C1.33694 2.40141 1.46449 2.0655 1.69463 1.81024C1.92476 1.55497 2.24029 1.3994 2.57739 1.375H15.3335C15.5103 1.375 15.6798 1.30257 15.8048 1.17364C15.9298 1.0447 16 0.869836 16 0.6875C16 0.505164 15.9298 0.330295 15.8048 0.201364C15.6798 0.0724328 15.5103 0 15.3335 0H2.57739C1.88666 0.0249539 1.23232 0.325665 0.752376 0.83871C0.272435 1.35176 0.00441225 2.03703 0.00483571 2.75C-0.0016119 2.86219 -0.0016119 2.97468 0.00483571 3.08687C-0.00158556 3.14168 -0.00158556 3.19707 0.00483571 3.25187V19.25C0.00441225 19.963 0.272435 20.6482 0.752376 21.1613C1.23232 21.6743 1.88666 21.975 2.57739 22H15.3335C15.5103 22 15.6798 21.9276 15.8048 21.7986C15.9298 21.6697 16 21.4948 16 21.3125V4.86062C16.0004 4.67358 15.9317 4.49341 15.8079 4.35676C15.6841 4.22011 15.5145 4.13724 15.3335 4.125Z" fill="#2C65D8"/>
</svg>
