<svg width="18" height="9" viewBox="0 0 18 9" fill="none" xmlns="http://www.w3.org/2000/svg">
<path d="M1.8 9V1.8H0V0H3.6V9H1.8ZM18 7.2C18 8.199 17.19 9 16.2 9H12.6V7.2H16.2V5.4H14.4V3.6H16.2V1.8H12.6V0H16.2C16.6774 0 17.1352 0.189642 17.4728 0.527208C17.8104 0.864773 18 1.32261 18 1.8V3.15C18 3.50804 17.8578 3.85142 17.6046 4.10459C17.3514 4.35777 17.008 4.5 16.65 4.5C17.008 4.5 17.3514 4.64223 17.6046 4.89541C17.8578 5.14858 18 5.49196 18 5.85V7.2ZM10.8 7.2V9H5.4V5.4C5.4 4.401 6.21 3.6 7.2 3.6H9V1.8H5.4V0H9C9.47739 0 9.93523 0.189642 10.2728 0.527208C10.6104 0.864773 10.8 1.32261 10.8 1.8V3.6C10.8 4.599 9.99 5.4 9 5.4H7.2V7.2H10.8Z" fill="#2C65D8"/>
</svg>
